<mxfile host="app.diagrams.net" agent="Mozilla/5.0 (Windows NT 10.0; Win64; x64) AppleWebKit/537.36 (KHTML, like Gecko) Chrome/130.0.0.0 Safari/537.36" version="24.8.6">
  <diagram name="Page-1" id="1S1J8GR-0on08LkawKew">
    <mxGraphModel dx="934" dy="580" grid="1" gridSize="10" guides="1" tooltips="1" connect="1" arrows="1" fold="1" page="1" pageScale="1" pageWidth="850" pageHeight="1100" math="0" shadow="0">
      <root>
        <mxCell id="0" />
        <mxCell id="1" parent="0" />
        <mxCell id="fWBWylX5V-5yjIzsxWxI-6" style="edgeStyle=orthogonalEdgeStyle;rounded=0;orthogonalLoop=1;jettySize=auto;html=1;exitX=0.5;exitY=1;exitDx=0;exitDy=0;entryX=0.5;entryY=0;entryDx=0;entryDy=0;" edge="1" parent="1" source="fWBWylX5V-5yjIzsxWxI-3">
          <mxGeometry relative="1" as="geometry">
            <mxPoint x="350" y="110" as="targetPoint" />
          </mxGeometry>
        </mxCell>
        <mxCell id="fWBWylX5V-5yjIzsxWxI-17" style="edgeStyle=orthogonalEdgeStyle;rounded=0;orthogonalLoop=1;jettySize=auto;html=1;exitX=0;exitY=0.5;exitDx=0;exitDy=0;" edge="1" parent="1" source="fWBWylX5V-5yjIzsxWxI-3">
          <mxGeometry relative="1" as="geometry">
            <mxPoint x="260" y="270" as="targetPoint" />
          </mxGeometry>
        </mxCell>
        <mxCell id="fWBWylX5V-5yjIzsxWxI-3" value="Start" style="ellipse;whiteSpace=wrap;html=1;" vertex="1" parent="1">
          <mxGeometry x="310" y="20" width="80" height="50" as="geometry" />
        </mxCell>
        <mxCell id="fWBWylX5V-5yjIzsxWxI-4" style="edgeStyle=orthogonalEdgeStyle;rounded=0;orthogonalLoop=1;jettySize=auto;html=1;exitX=0.5;exitY=1;exitDx=0;exitDy=0;" edge="1" parent="1" source="fWBWylX5V-5yjIzsxWxI-3" target="fWBWylX5V-5yjIzsxWxI-3">
          <mxGeometry relative="1" as="geometry" />
        </mxCell>
        <mxCell id="fWBWylX5V-5yjIzsxWxI-13" style="edgeStyle=orthogonalEdgeStyle;rounded=0;orthogonalLoop=1;jettySize=auto;html=1;exitX=0.5;exitY=1;exitDx=0;exitDy=0;" edge="1" parent="1" source="fWBWylX5V-5yjIzsxWxI-10" target="fWBWylX5V-5yjIzsxWxI-14">
          <mxGeometry relative="1" as="geometry">
            <mxPoint x="350" y="200" as="targetPoint" />
          </mxGeometry>
        </mxCell>
        <mxCell id="fWBWylX5V-5yjIzsxWxI-10" value="READ Input" style="shape=parallelogram;perimeter=parallelogramPerimeter;whiteSpace=wrap;html=1;fixedSize=1;" vertex="1" parent="1">
          <mxGeometry x="290" y="110" width="120" height="60" as="geometry" />
        </mxCell>
        <mxCell id="fWBWylX5V-5yjIzsxWxI-19" value="" style="edgeStyle=orthogonalEdgeStyle;rounded=0;orthogonalLoop=1;jettySize=auto;html=1;" edge="1" parent="1" source="fWBWylX5V-5yjIzsxWxI-11">
          <mxGeometry relative="1" as="geometry">
            <mxPoint x="500" y="380" as="targetPoint" />
          </mxGeometry>
        </mxCell>
        <mxCell id="fWBWylX5V-5yjIzsxWxI-11" value="Output=Input*rate" style="rounded=0;whiteSpace=wrap;html=1;" vertex="1" parent="1">
          <mxGeometry x="440" y="240" width="120" height="60" as="geometry" />
        </mxCell>
        <mxCell id="fWBWylX5V-5yjIzsxWxI-15" value="yes" style="edgeStyle=orthogonalEdgeStyle;rounded=0;orthogonalLoop=1;jettySize=auto;html=1;exitX=1;exitY=0.5;exitDx=0;exitDy=0;" edge="1" parent="1" source="fWBWylX5V-5yjIzsxWxI-14">
          <mxGeometry relative="1" as="geometry">
            <mxPoint x="440" y="270" as="targetPoint" />
          </mxGeometry>
        </mxCell>
        <mxCell id="fWBWylX5V-5yjIzsxWxI-16" value="No" style="edgeStyle=orthogonalEdgeStyle;rounded=0;orthogonalLoop=1;jettySize=auto;html=1;exitX=0;exitY=0.5;exitDx=0;exitDy=0;" edge="1" parent="1" source="fWBWylX5V-5yjIzsxWxI-14">
          <mxGeometry relative="1" as="geometry">
            <mxPoint x="260" y="270" as="targetPoint" />
            <Array as="points">
              <mxPoint x="285" y="270" />
              <mxPoint x="285" y="271" />
            </Array>
          </mxGeometry>
        </mxCell>
        <mxCell id="fWBWylX5V-5yjIzsxWxI-14" value="Is Input&amp;gt;1500" style="rhombus;whiteSpace=wrap;html=1;" vertex="1" parent="1">
          <mxGeometry x="310" y="230" width="80" height="80" as="geometry" />
        </mxCell>
        <mxCell id="fWBWylX5V-5yjIzsxWxI-22" value="" style="edgeStyle=orthogonalEdgeStyle;rounded=0;orthogonalLoop=1;jettySize=auto;html=1;" edge="1" parent="1" source="fWBWylX5V-5yjIzsxWxI-20" target="fWBWylX5V-5yjIzsxWxI-23">
          <mxGeometry relative="1" as="geometry">
            <mxPoint x="650" y="410" as="targetPoint" />
          </mxGeometry>
        </mxCell>
        <mxCell id="fWBWylX5V-5yjIzsxWxI-20" value="Read Number" style="shape=parallelogram;perimeter=parallelogramPerimeter;whiteSpace=wrap;html=1;fixedSize=1;" vertex="1" parent="1">
          <mxGeometry x="440" y="380" width="120" height="60" as="geometry" />
        </mxCell>
        <mxCell id="fWBWylX5V-5yjIzsxWxI-26" value="" style="edgeStyle=orthogonalEdgeStyle;rounded=0;orthogonalLoop=1;jettySize=auto;html=1;" edge="1" parent="1" source="fWBWylX5V-5yjIzsxWxI-23" target="fWBWylX5V-5yjIzsxWxI-25">
          <mxGeometry relative="1" as="geometry" />
        </mxCell>
        <mxCell id="fWBWylX5V-5yjIzsxWxI-23" value="Print *{Input}#" style="shape=parallelogram;perimeter=parallelogramPerimeter;whiteSpace=wrap;html=1;fixedSize=1;" vertex="1" parent="1">
          <mxGeometry x="590" y="380" width="120" height="60" as="geometry" />
        </mxCell>
        <mxCell id="fWBWylX5V-5yjIzsxWxI-27" value="No" style="edgeStyle=orthogonalEdgeStyle;rounded=0;orthogonalLoop=1;jettySize=auto;html=1;exitX=0;exitY=0.5;exitDx=0;exitDy=0;" edge="1" parent="1" source="fWBWylX5V-5yjIzsxWxI-25" target="fWBWylX5V-5yjIzsxWxI-28">
          <mxGeometry relative="1" as="geometry">
            <mxPoint x="509.9999999999998" y="540" as="targetPoint" />
          </mxGeometry>
        </mxCell>
        <mxCell id="fWBWylX5V-5yjIzsxWxI-30" value="" style="edgeStyle=orthogonalEdgeStyle;rounded=0;orthogonalLoop=1;jettySize=auto;html=1;" edge="1" parent="1" source="fWBWylX5V-5yjIzsxWxI-25" target="fWBWylX5V-5yjIzsxWxI-29">
          <mxGeometry relative="1" as="geometry" />
        </mxCell>
        <mxCell id="fWBWylX5V-5yjIzsxWxI-25" value="Is a==input" style="rhombus;whiteSpace=wrap;html=1;" vertex="1" parent="1">
          <mxGeometry x="610" y="510" width="80" height="90" as="geometry" />
        </mxCell>
        <mxCell id="fWBWylX5V-5yjIzsxWxI-28" value="Transaction Failed" style="rounded=1;whiteSpace=wrap;html=1;" vertex="1" parent="1">
          <mxGeometry x="449.9999999999998" y="510" width="120" height="60" as="geometry" />
        </mxCell>
        <mxCell id="fWBWylX5V-5yjIzsxWxI-29" value="Confirm payment" style="whiteSpace=wrap;html=1;" vertex="1" parent="1">
          <mxGeometry x="590" y="695" width="120" height="60" as="geometry" />
        </mxCell>
      </root>
    </mxGraphModel>
  </diagram>
</mxfile>
